<?xml version="1.0" encoding="UTF-8" standalone="no"?>
<svg width="35px" height="32px" viewBox="0 0 35 32" version="1.1" xmlns="http://www.w3.org/2000/svg" xmlns:xlink="http://www.w3.org/1999/xlink" xmlns:sketch="http://www.bohemiancoding.com/sketch/ns">
    <!-- Generator: Sketch 3.5.1 (25234) - http://www.bohemiancoding.com/sketch -->
    <title>dumbell2</title>
    <desc>Created with Sketch.</desc>
    <defs></defs>
    <g id="Page-1" stroke="none" stroke-width="1" fill="none" fill-rule="evenodd" sketch:type="MSPage">
        <g id="dumbell2" sketch:type="MSArtboardGroup" fill="#7EB6C2">
            <path d="M32.6666667,15.1666667 L31.5,15.1666667 L31.5,12.8333333 C31.5,11.5453333 30.4546667,10.5 29.1666667,10.5 C28.7396667,10.5 28.3441667,10.6225 28,10.8231667 L28,9.33333333 C28,8.04533333 26.9546667,7 25.6666667,7 C24.3786667,7 23.3333333,8.04533333 23.3333333,9.33333333 L23.3333333,15.1666667 L11.6666667,15.1666667 L11.6666667,9.33333333 C11.6666667,8.04533333 10.6213333,7 9.33333333,7 C8.04533333,7 7,8.04533333 7,9.33333333 L7,10.8231667 C6.65583333,10.6225 6.26033333,10.5 5.83333333,10.5 C4.54533333,10.5 3.5,11.5453333 3.5,12.8333333 L3.5,15.1666667 L2.33333333,15.1666667 C1.04533333,15.1666667 0,16.212 0,17.5 C0,18.788 1.04533333,19.8333333 2.33333333,19.8333333 L3.5,19.8333333 L3.5,22.1666667 C3.5,23.4546667 4.54533333,24.5 5.83333333,24.5 C6.26033333,24.5 6.65583333,24.3775 7,24.1768333 L7,25.6666667 C7,26.9546667 8.04533333,28 9.33333333,28 C10.6213333,28 11.6666667,26.9546667 11.6666667,25.6666667 L11.6666667,19.8333333 L23.3333333,19.8333333 L23.3333333,25.6666667 C23.3333333,26.9546667 24.3786667,28 25.6666667,28 C26.9546667,28 28,26.9546667 28,25.6666667 L28,24.1768333 C28.3441667,24.3775 28.7396667,24.5 29.1666667,24.5 C30.4546667,24.5 31.5,23.4546667 31.5,22.1666667 L31.5,19.8333333 L32.6666667,19.8333333 C33.9546667,19.8333333 35,18.788 35,17.5 C35,16.212 33.9546667,15.1666667 32.6666667,15.1666667 L32.6666667,15.1666667 Z M3.5,18.6666667 L2.33333333,18.6666667 C1.6905,18.6666667 1.16666667,18.1428333 1.16666667,17.5 C1.16666667,16.8571667 1.6905,16.3333333 2.33333333,16.3333333 L3.5,16.3333333 L3.5,18.6666667 L3.5,18.6666667 Z M5.83333333,23.3333333 C5.1905,23.3333333 4.66666667,22.8106667 4.66666667,22.1666667 L4.66666667,12.8333333 C4.66666667,12.1905 5.1905,11.6666667 5.83333333,11.6666667 C6.47616667,11.6666667 7,12.1905 7,12.8333333 L7,22.1666667 C7,22.8106667 6.47616667,23.3333333 5.83333333,23.3333333 L5.83333333,23.3333333 Z M10.5,25.6666667 C10.5,26.3106667 9.97616667,26.8333333 9.33333333,26.8333333 C8.6905,26.8333333 8.16666667,26.3106667 8.16666667,25.6666667 L8.16666667,9.33333333 C8.16666667,8.6905 8.6905,8.16666667 9.33333333,8.16666667 C9.97616667,8.16666667 10.5,8.6905 10.5,9.33333333 L10.5,25.6666667 L10.5,25.6666667 Z M23.3333333,18.6666667 L11.6666667,18.6666667 L11.6666667,16.3333333 L23.3333333,16.3333333 L23.3333333,18.6666667 L23.3333333,18.6666667 Z M26.8333333,25.6666667 C26.8333333,26.3106667 26.3106667,26.8333333 25.6666667,26.8333333 C25.0226667,26.8333333 24.5,26.3106667 24.5,25.6666667 L24.5,9.33333333 C24.5,8.6905 25.0226667,8.16666667 25.6666667,8.16666667 C26.3106667,8.16666667 26.8333333,8.6905 26.8333333,9.33333333 L26.8333333,25.6666667 L26.8333333,25.6666667 Z M30.3333333,22.1666667 C30.3333333,22.8106667 29.8106667,23.3333333 29.1666667,23.3333333 C28.5226667,23.3333333 28,22.8106667 28,22.1666667 L28,12.8333333 C28,12.1905 28.5226667,11.6666667 29.1666667,11.6666667 C29.8106667,11.6666667 30.3333333,12.1905 30.3333333,12.8333333 L30.3333333,22.1666667 L30.3333333,22.1666667 Z M32.6666667,18.6666667 L31.5,18.6666667 L31.5,16.3333333 L32.6666667,16.3333333 C33.3106667,16.3333333 33.8333333,16.8571667 33.8333333,17.5 C33.8333333,18.1428333 33.3106667,18.6666667 32.6666667,18.6666667 L32.6666667,18.6666667 Z" id="Shape" sketch:type="MSShapeGroup"></path>
        </g>
    </g>
</svg>