<?xml version="1.0" encoding="UTF-8" standalone="no"?>
<svg width="24px" height="32px" viewBox="0 0 24 32" version="1.1" xmlns="http://www.w3.org/2000/svg" xmlns:xlink="http://www.w3.org/1999/xlink" xmlns:sketch="http://www.bohemiancoding.com/sketch/ns">
    <!-- Generator: Sketch 3.5.1 (25234) - http://www.bohemiancoding.com/sketch -->
    <title>dumbell2</title>
    <desc>Created with Sketch.</desc>
    <defs></defs>
    <g id="Page-1" stroke="none" stroke-width="1" fill="none" fill-rule="evenodd" sketch:type="MSPage">
        <g id="dumbell2" sketch:type="MSArtboardGroup" fill="#7EB6C2">
            <path d="M22.3999994,14.5999999 L21.5999994,14.5999999 L21.5999994,12.9999999 C21.5999994,12.1167999 20.8831994,11.3999999 19.9999995,11.3999999 C19.7071995,11.3999999 19.4359995,11.4839999 19.1999995,11.6215999 L19.1999995,10.6 C19.1999995,9.71679998 18.4831995,9 17.5999995,9 C16.7167996,9 15.9999996,9.71679998 15.9999996,10.6 L15.9999996,14.5999999 L7.99999979,14.5999999 L7.99999979,10.6 C7.99999979,9.71679998 7.28319981,9 6.39999983,9 C5.51679985,9 4.79999987,9.71679998 4.79999987,10.6 L4.79999987,11.6215999 C4.56399988,11.4839999 4.29279989,11.3999999 3.99999989,11.3999999 C3.11679992,11.3999999 2.39999994,12.1167999 2.39999994,12.9999999 L2.39999994,14.5999999 L1.59999996,14.5999999 C0.716799981,14.5999999 0,15.3167998 0,16.1999998 C0,17.0831998 0.716799981,17.7999998 1.59999996,17.7999998 L2.39999994,17.7999998 L2.39999994,19.3999997 C2.39999994,20.2831997 3.11679992,20.9999997 3.99999989,20.9999997 C4.29279989,20.9999997 4.56399988,20.9159997 4.79999987,20.7783997 L4.79999987,21.7999997 C4.79999987,22.6831996 5.51679985,23.3999996 6.39999983,23.3999996 C7.28319981,23.3999996 7.99999979,22.6831996 7.99999979,21.7999997 L7.99999979,17.7999998 L15.9999996,17.7999998 L15.9999996,21.7999997 C15.9999996,22.6831996 16.7167996,23.3999996 17.5999995,23.3999996 C18.4831995,23.3999996 19.1999995,22.6831996 19.1999995,21.7999997 L19.1999995,20.7783997 C19.4359995,20.9159997 19.7071995,20.9999997 19.9999995,20.9999997 C20.8831994,20.9999997 21.5999994,20.2831997 21.5999994,19.3999997 L21.5999994,17.7999998 L22.3999994,17.7999998 C23.2831994,17.7999998 23.9999994,17.0831998 23.9999994,16.1999998 C23.9999994,15.3167998 23.2831994,14.5999999 22.3999994,14.5999999 L22.3999994,14.5999999 Z M2.39999994,16.9999998 L1.59999996,16.9999998 C1.15919997,16.9999998 0.799999979,16.6407998 0.799999979,16.1999998 C0.799999979,15.7591998 1.15919997,15.3999998 1.59999996,15.3999998 L2.39999994,15.3999998 L2.39999994,16.9999998 L2.39999994,16.9999998 Z M3.99999989,20.1999997 C3.55919991,20.1999997 3.19999992,19.8415997 3.19999992,19.3999997 L3.19999992,12.9999999 C3.19999992,12.5591999 3.55919991,12.1999999 3.99999989,12.1999999 C4.44079988,12.1999999 4.79999987,12.5591999 4.79999987,12.9999999 L4.79999987,19.3999997 C4.79999987,19.8415997 4.44079988,20.1999997 3.99999989,20.1999997 L3.99999989,20.1999997 Z M7.19999981,21.7999997 C7.19999981,22.2415996 6.84079982,22.5999996 6.39999983,22.5999996 C5.95919984,22.5999996 5.59999985,22.2415996 5.59999985,21.7999997 L5.59999985,10.6 C5.59999985,10.1592 5.95919984,9.79999998 6.39999983,9.79999998 C6.84079982,9.79999998 7.19999981,10.1592 7.19999981,10.6 L7.19999981,21.7999997 L7.19999981,21.7999997 Z M15.9999996,16.9999998 L7.99999979,16.9999998 L7.99999979,15.3999998 L15.9999996,15.3999998 L15.9999996,16.9999998 L15.9999996,16.9999998 Z M18.3999995,21.7999997 C18.3999995,22.2415996 18.0415995,22.5999996 17.5999995,22.5999996 C17.1583995,22.5999996 16.7999996,22.2415996 16.7999996,21.7999997 L16.7999996,10.6 C16.7999996,10.1592 17.1583995,9.79999998 17.5999995,9.79999998 C18.0415995,9.79999998 18.3999995,10.1592 18.3999995,10.6 L18.3999995,21.7999997 L18.3999995,21.7999997 Z M20.7999994,19.3999997 C20.7999994,19.8415997 20.4415995,20.1999997 19.9999995,20.1999997 C19.5583995,20.1999997 19.1999995,19.8415997 19.1999995,19.3999997 L19.1999995,12.9999999 C19.1999995,12.5591999 19.5583995,12.1999999 19.9999995,12.1999999 C20.4415995,12.1999999 20.7999994,12.5591999 20.7999994,12.9999999 L20.7999994,19.3999997 L20.7999994,19.3999997 Z M22.3999994,16.9999998 L21.5999994,16.9999998 L21.5999994,15.3999998 L22.3999994,15.3999998 C22.8415994,15.3999998 23.1999994,15.7591998 23.1999994,16.1999998 C23.1999994,16.6407998 22.8415994,16.9999998 22.3999994,16.9999998 L22.3999994,16.9999998 Z" id="Shape" sketch:type="MSShapeGroup"></path>
        </g>
    </g>
</svg>