<?xml version="1.0" encoding="UTF-8" standalone="no"?>
<svg width="35px" height="21px" viewBox="0 0 35 21" version="1.1" xmlns="http://www.w3.org/2000/svg" xmlns:xlink="http://www.w3.org/1999/xlink" xmlns:sketch="http://www.bohemiancoding.com/sketch/ns">
    <!-- Generator: Sketch 3.5.1 (25234) - http://www.bohemiancoding.com/sketch -->
    <title>dumbell</title>
    <desc>Created with Sketch.</desc>
    <defs></defs>
    <g id="Page-1" stroke="none" stroke-width="1" fill="none" fill-rule="evenodd" sketch:type="MSPage">
        <g id="dumbell" sketch:type="MSArtboardGroup" fill="#7EB6C2">
            <path d="M32.6666667,8.16666667 L31.5,8.16666667 L31.5,5.83333333 C31.5,4.54533333 30.4546667,3.5 29.1666667,3.5 C28.7396667,3.5 28.3441667,3.6225 28,3.82316667 L28,2.33333333 C28,1.04533333 26.9546667,0 25.6666667,0 C24.3786667,0 23.3333333,1.04533333 23.3333333,2.33333333 L23.3333333,8.16666667 L11.6666667,8.16666667 L11.6666667,2.33333333 C11.6666667,1.04533333 10.6213333,0 9.33333333,0 C8.04533333,0 7,1.04533333 7,2.33333333 L7,3.82316667 C6.65583333,3.6225 6.26033333,3.5 5.83333333,3.5 C4.54533333,3.5 3.5,4.54533333 3.5,5.83333333 L3.5,8.16666667 L2.33333333,8.16666667 C1.04533333,8.16666667 0,9.212 0,10.5 C0,11.788 1.04533333,12.8333333 2.33333333,12.8333333 L3.5,12.8333333 L3.5,15.1666667 C3.5,16.4546667 4.54533333,17.5 5.83333333,17.5 C6.26033333,17.5 6.65583333,17.3775 7,17.1768333 L7,18.6666667 C7,19.9546667 8.04533333,21 9.33333333,21 C10.6213333,21 11.6666667,19.9546667 11.6666667,18.6666667 L11.6666667,12.8333333 L23.3333333,12.8333333 L23.3333333,18.6666667 C23.3333333,19.9546667 24.3786667,21 25.6666667,21 C26.9546667,21 28,19.9546667 28,18.6666667 L28,17.1768333 C28.3441667,17.3775 28.7396667,17.5 29.1666667,17.5 C30.4546667,17.5 31.5,16.4546667 31.5,15.1666667 L31.5,12.8333333 L32.6666667,12.8333333 C33.9546667,12.8333333 35,11.788 35,10.5 C35,9.212 33.9546667,8.16666667 32.6666667,8.16666667 L32.6666667,8.16666667 Z M3.5,11.6666667 L2.33333333,11.6666667 C1.6905,11.6666667 1.16666667,11.1428333 1.16666667,10.5 C1.16666667,9.85716667 1.6905,9.33333333 2.33333333,9.33333333 L3.5,9.33333333 L3.5,11.6666667 L3.5,11.6666667 Z M5.83333333,16.3333333 C5.1905,16.3333333 4.66666667,15.8106667 4.66666667,15.1666667 L4.66666667,5.83333333 C4.66666667,5.1905 5.1905,4.66666667 5.83333333,4.66666667 C6.47616667,4.66666667 7,5.1905 7,5.83333333 L7,15.1666667 C7,15.8106667 6.47616667,16.3333333 5.83333333,16.3333333 L5.83333333,16.3333333 Z M10.5,18.6666667 C10.5,19.3106667 9.97616667,19.8333333 9.33333333,19.8333333 C8.6905,19.8333333 8.16666667,19.3106667 8.16666667,18.6666667 L8.16666667,2.33333333 C8.16666667,1.6905 8.6905,1.16666667 9.33333333,1.16666667 C9.97616667,1.16666667 10.5,1.6905 10.5,2.33333333 L10.5,18.6666667 L10.5,18.6666667 Z M23.3333333,11.6666667 L11.6666667,11.6666667 L11.6666667,9.33333333 L23.3333333,9.33333333 L23.3333333,11.6666667 L23.3333333,11.6666667 Z M26.8333333,18.6666667 C26.8333333,19.3106667 26.3106667,19.8333333 25.6666667,19.8333333 C25.0226667,19.8333333 24.5,19.3106667 24.5,18.6666667 L24.5,2.33333333 C24.5,1.6905 25.0226667,1.16666667 25.6666667,1.16666667 C26.3106667,1.16666667 26.8333333,1.6905 26.8333333,2.33333333 L26.8333333,18.6666667 L26.8333333,18.6666667 Z M30.3333333,15.1666667 C30.3333333,15.8106667 29.8106667,16.3333333 29.1666667,16.3333333 C28.5226667,16.3333333 28,15.8106667 28,15.1666667 L28,5.83333333 C28,5.1905 28.5226667,4.66666667 29.1666667,4.66666667 C29.8106667,4.66666667 30.3333333,5.1905 30.3333333,5.83333333 L30.3333333,15.1666667 L30.3333333,15.1666667 Z M32.6666667,11.6666667 L31.5,11.6666667 L31.5,9.33333333 L32.6666667,9.33333333 C33.3106667,9.33333333 33.8333333,9.85716667 33.8333333,10.5 C33.8333333,11.1428333 33.3106667,11.6666667 32.6666667,11.6666667 L32.6666667,11.6666667 Z" id="Shape" sketch:type="MSShapeGroup"></path>
        </g>
    </g>
</svg>