<?xml version="1.0" encoding="UTF-8" standalone="no"?>
<svg width="35px" height="32px" viewBox="0 0 35 32" version="1.1" xmlns="http://www.w3.org/2000/svg" xmlns:xlink="http://www.w3.org/1999/xlink" xmlns:sketch="http://www.bohemiancoding.com/sketch/ns">
    <!-- Generator: Sketch 3.5.1 (25234) - http://www.bohemiancoding.com/sketch -->
    <title>hikingnew</title>
    <desc>Created with Sketch.</desc>
    <defs>
        <linearGradient x1="50%" y1="0%" x2="50%" y2="100%" id="linearGradient-1">
            <stop stop-color="#61AE00" offset="0%"></stop>
            <stop stop-color="#2E7500" offset="100%"></stop>
        </linearGradient>
    </defs>
    <g id="Page-1" stroke="none" stroke-width="1" fill="none" fill-rule="evenodd" sketch:type="MSPage">
        <g id="hikingnew" sketch:type="MSArtboardGroup">
            <g id="Group" sketch:type="MSLayerGroup" transform="translate(3.000000, 2.000000)">
                <ellipse id="Oval-181" fill="url(#linearGradient-1)" sketch:type="MSShapeGroup" cx="14.4545455" cy="14.5" rx="14.4545455" ry="14.5"></ellipse>
                <circle id="Oval-455" stroke="#FFFFFF" stroke-width="0.1" fill="#FFFFFF" sketch:type="MSShapeGroup" cx="15.2000008" cy="7.19999981" r="1.5"></circle>
                <path d="M12.1561279,16.78125 L13.5311279,18.53125 L13.6561279,19.125 L13.4061279,19.71875 L10.5623779,23.40625 L9.96862793,23.59375 L9.28112793,23.34375 L9.06237793,22.65625 L9.40612793,21.5625 L11.6561279,18.71875 L12.1561279,16.78125 Z" id="Path-974" stroke="#FFFFFF" stroke-width="0.1" fill="#FFFFFF" sketch:type="MSShapeGroup"></path>
                <path d="M16.3748779,22.96875 C16.3748779,22.96875 17.0684103,21.0404681 17.5311279,19.75 C18.0059103,18.4258848 19.1873779,15.125 19.1873779,15.125 L17.7498779,14.3125 L16.6561279,13.71875 L16.0311279,12.6875 L15.7811279,14.03125 L15.3436279,16.5625 L16.7811279,18.65625 L17.2186279,19.21875 L16.4686279,21.3125 L12.5623779,16.3125 L12.3436279,15.96875 L12.2186279,15.53125 L12.2811279,14.5625 L13.0623779,10.25 L13.4061279,9.65625 L14.0936279,9.5625 L16.3123779,9.78125 L17.9998779,12 L20.3748779,13.46875 L20.9061279,13.875 L20.9686279,14.46875 L20.7186279,14.96875 L20.2811279,15.125 C20.2811279,15.125 18.8598819,18.3355135 18.2498779,19.96875 C18.2140486,20.0646802 18.1248779,20.5625 18.1248779,20.5625 L18.2498779,20.875 L19.4373779,22.0625 L19.5936279,22.84375 L19.2498779,23.4375 L18.6561279,23.71875 L17.9998779,23.46875 L17.5311279,22.78125 C17.5311279,22.78125 17.1977666,22.6466862 17.1248779,22.78125 C17.06235,22.8966862 17.1248779,23.53125 17.1248779,23.53125 L16.5311279,23.5625 L16.3748779,22.96875 Z" id="Path-973" stroke="#FFFFFF" stroke-width="0.1" fill="#FFFFFF" sketch:type="MSShapeGroup"></path>
                <path d="M8.81225586,13.875 L10.3122559,9.3125 L10.9372559,9 L12.0622559,9.1875 L12.3747559,9.75 L11.5622559,14.1875 L11.4372559,14.75 L10.9372559,14.8125 L9.49975586,14.5 L8.81225586,13.875 Z" id="Path-972" stroke="#FFFFFF" stroke-width="0.1" fill="#FFFFFF" sketch:type="MSShapeGroup"></path>
            </g>
        </g>
    </g>
</svg>