<?xml version="1.0" encoding="UTF-8" standalone="no"?>
<svg width="35px" height="34px" viewBox="0 0 35 34" version="1.1" xmlns="http://www.w3.org/2000/svg" xmlns:xlink="http://www.w3.org/1999/xlink" xmlns:sketch="http://www.bohemiancoding.com/sketch/ns">
    <!-- Generator: Sketch 3.5.1 (25234) - http://www.bohemiancoding.com/sketch -->
    <title>hiking</title>
    <desc>Created with Sketch.</desc>
    <defs>
        <linearGradient x1="50%" y1="0%" x2="50%" y2="100%" id="linearGradient-1">
            <stop stop-color="#61AE00" offset="0%"></stop>
            <stop stop-color="#2E7500" offset="100%"></stop>
        </linearGradient>
    </defs>
    <g id="Page-1" stroke="none" stroke-width="1" fill="none" fill-rule="evenodd" sketch:type="MSPage">
        <g id="hiking" sketch:type="MSArtboardGroup">
            <g id="Oval-181-+-1446843318_swimming-Copy-2-+-1446843556_user-hiking" sketch:type="MSLayerGroup" transform="translate(3.000000, 3.000000)">
                <g id="Oval-181-+-1446843318_swimming-Copy-2" sketch:type="MSShapeGroup">
                    <ellipse id="Oval-181" fill="url(#linearGradient-1)" cx="14.4545455" cy="14.5" rx="14.4545455" ry="14.5"></ellipse>
                    <circle id="Oval-455" fill="#FFFFFF" cx="15.2000008" cy="7.19999981" r="1.5"></circle>
                    <path d="M8.92181396,14.03125 L8.92181396,13.4375 L10.328064,9.28125 L10.624939,9.03125 L11.749939,9.015625 L12.062439,9.234375 L12.265564,9.65625 L11.484314,14.40625 L11.343689,14.75 L10.874939,14.828125 L9.12493896,14.34375 L8.92181396,14.03125 Z" id="Path-972" fill="#FFFFFF"></path>
                    <path d="M12.093689,16.734375 L13.468689,18.453125 L13.624939,18.6875 L13.640564,19.59375 L10.515564,23.46875 L10.124939,23.609375 L9.71868896,23.640625 L9.35931396,23.46875 L9.04681396,23.03125 L9.06243896,22.046875 L11.640564,18.734375 L11.703064,18.015625 L12.093689,16.734375 Z" id="Path-973" fill="#FFFFFF"></path>
                </g>
            </g>
        </g>
    </g>
</svg>