<?xml version="1.0" encoding="UTF-8" standalone="no"?>
<svg width="35px" height="34px" viewBox="0 0 35 34" version="1.1" xmlns="http://www.w3.org/2000/svg" xmlns:xlink="http://www.w3.org/1999/xlink" xmlns:sketch="http://www.bohemiancoding.com/sketch/ns">
    <!-- Generator: Sketch 3.5.1 (25234) - http://www.bohemiancoding.com/sketch -->
    <title>hiking</title>
    <desc>Created with Sketch.</desc>
    <defs>
        <linearGradient x1="50%" y1="0%" x2="50%" y2="100%" id="linearGradient-1">
            <stop stop-color="#61AE00" offset="0%"></stop>
            <stop stop-color="#2E7500" offset="100%"></stop>
        </linearGradient>
    </defs>
    <g id="Page-1" stroke="none" stroke-width="1" fill="none" fill-rule="evenodd" sketch:type="MSPage">
        <g id="hiking" sketch:type="MSArtboardGroup">
            <g id="Oval-181-+-1446843318_swimming-Copy-2-+-1446843556_user-hiking" sketch:type="MSLayerGroup" transform="translate(3.000000, 3.000000)">
                <g id="Oval-181-+-1446843318_swimming-Copy-2" sketch:type="MSShapeGroup">
                    <ellipse id="Oval-181" fill="url(#linearGradient-1)" cx="14.4545455" cy="14.5" rx="14.4545455" ry="14.5"></ellipse>
                    <circle id="Oval-455" fill="#FFFFFF" cx="15.2000008" cy="7.19999981" r="1.5"></circle>
                    <path d="M8.92181396,14.03125 L8.92181396,13.4375 L10.328064,9.28125 L10.624939,9.03125 L11.749939,9.015625 L12.062439,9.234375 L12.265564,9.65625 L11.484314,14.40625 L11.343689,14.75 L10.874939,14.828125 L9.12493896,14.34375 L8.92181396,14.03125 Z" id="Path-972" fill="#FFFFFF"></path>
                    <path d="M12.093689,16.734375 L13.468689,18.453125 L13.624939,18.6875 L13.640564,19.59375 L10.515564,23.46875 L10.124939,23.609375 L9.71868896,23.640625 L9.35931396,23.46875 L9.04681396,23.03125 L9.06243896,22.046875 L11.640564,18.734375 L11.703064,18.015625 L12.093689,16.734375 Z" id="Path-973" fill="#FFFFFF"></path>
                    <path d="M12.296814,15.640625 L12.312439,14.921875 L12.499939,13.75 L12.624939,12.71875 L12.843689,11.671875 L12.999939,10.65625 L13.156189,10.0625 L13.328064,9.71875 L13.718689,9.609375 L14.578064,9.59375 L15.687439,9.734375 L16.390564,9.9375 L18.140564,12.140625 L20.234314,13.4375 L20.671814,13.625 L20.874939,14.0625 L20.906189,14.796875 L20.703064,15 L20.156189,15.234375 L18.203064,20.4375 L19.437439,22.15625 L19.546814,22.4375 L19.562439,23.140625 L19.015564,23.59375 L18.296814,23.65625 L17.968689,23.53125 L17.421814,22.609375 L16.953064,23.546875 L16.531189,23.578125 L16.281189,22.859375 L19.062439,15.421875 L19.265564,15.078125 L17.140564,13.921875 L16.749939,13.765625 L15.999939,12.65625 L15.671814,13.84375 L15.499939,15.203125 L15.343689,15.90625 L15.281189,16.625 L16.546814,18.25 L17.265564,19.125 L16.390564,21.328125 L12.796814,16.46875 L12.296814,15.640625 Z" id="Path-974" fill="#FFFFFF"></path>
                </g>
            </g>
        </g>
    </g>
</svg>